HIERARCHY
ROOT hip
{
  OFFSET 0 0 0
  CHANNELS 6 Xposition Yposition Zposition Zrotation Yrotation Xrotation
  JOINT abdomen
  {
    OFFSET 0 20.6881 -0.73152
    CHANNELS 3 Zrotation Xrotation Yrotation
    JOINT chest
    {
      OFFSET 0 11.7043 -0.48768
      CHANNELS 3 Zrotation Xrotation Yrotation
      JOINT neck
      {
        OFFSET 0 22.1894 -2.19456
        CHANNELS 3 Zrotation Xrotation Yrotation
        JOINT head
        {
          OFFSET -0.24384 7.07133 1.2192
          CHANNELS 3 Zrotation Xrotation Yrotation
          JOINT leftEye
          {
            OFFSET 4.14528 8.04674 8.04672
            CHANNELS 3 Zrotation Xrotation Yrotation
            End Site
            {
              OFFSET 1 0 0
            }
          }
          JOINT rightEye
          {
            OFFSET -3.6576 8.04674 8.04672
            CHANNELS 3 Zrotation Xrotation Yrotation
            End Site
            {
              OFFSET 1 0 0
            }
          }
        }
      }
      JOINT rCollar
      {
        OFFSET -2.68224 19.2634 -4.8768
        CHANNELS 3 Zrotation Xrotation Yrotation
        JOINT rShldr
        {
          OFFSET -8.77824 -1.95073 1.46304
          CHANNELS 3 Zrotation Xrotation Yrotation
          JOINT rForeArm
          {
            OFFSET -28.1742 -1.7115 0.48768
            CHANNELS 3 Zrotation Xrotation Yrotation
            JOINT rHand
            {
              OFFSET -22.5879 0.773209 7.07136
              CHANNELS 3 Zrotation Xrotation Yrotation
              JOINT rThumb1
              {
                OFFSET -1.2192 -0.487915 3.41376
                CHANNELS 3 Zrotation Xrotation Yrotation
                JOINT rThumb2
                {
                  OFFSET -3.37035 -0.52449 3.41376
                  CHANNELS 3 Zrotation Xrotation Yrotation
                  End Site
                  {
                    OFFSET -1.78271 -1.18214 1.43049
                  }
                }
              }
              JOINT rIndex1
              {
                OFFSET -7.75947 0.938293 5.60832
                CHANNELS 3 Zrotation Xrotation Yrotation
                JOINT rIndex2
                {
                  OFFSET -2.54057 -0.884171 1.56538
                  CHANNELS 3 Zrotation Xrotation Yrotation
                  End Site
                  {
                    OFFSET -1.62519 -0.234802 1.16502
                  }
                }
              }
              JOINT rMid1
              {
                OFFSET -8.24714 1.18213 3.41376
                CHANNELS 3 Zrotation Xrotation Yrotation
                JOINT rMid2
                {
                  OFFSET -3.10165 -0.590103 1.0647
                  CHANNELS 3 Zrotation Xrotation Yrotation
                  End Site
                  {
                    OFFSET -2.48547 -0.328903 0.83742
                  }
                }
              }
              JOINT rRing1
              {
                OFFSET -8.82822 0.546677 1.51678
                CHANNELS 3 Zrotation Xrotation Yrotation
                JOINT rRing2
                {
                  OFFSET -2.60934 -0.819778 -0.0198488
                  CHANNELS 3 Zrotation Xrotation Yrotation
                  End Site
                  {
                    OFFSET -2.33842 -0.294052 0.168128
                  }
                }
              }
              JOINT rPinky1
              {
                OFFSET -8.27202 -0.0477905 -0.4584
                CHANNELS 3 Zrotation Xrotation Yrotation
                JOINT rPinky2
                {
                  OFFSET -1.82734 -0.647385 -0.700984
                  CHANNELS 3 Zrotation Xrotation Yrotation
                  End Site
                  {
                    OFFSET -1.69225 -0.51767 -0.607171
                  }
                }
              }
            }
          }
        }
      }
      JOINT lCollar
      {
        OFFSET 2.68224 19.2634 -4.8768
        CHANNELS 3 Zrotation Xrotation Yrotation
        JOINT lShldr
        {
          OFFSET 8.77824 -1.95073 1.46304
          CHANNELS 3 Zrotation Xrotation Yrotation
          JOINT lForeArm
          {
            OFFSET 28.1742 -1.7115 0.48768
            CHANNELS 3 Zrotation Xrotation Yrotation
            JOINT lHand
            {
              OFFSET 22.5879 0.773209 7.07136
              CHANNELS 3 Zrotation Xrotation Yrotation
              JOINT lThumb1
              {
                OFFSET 1.2192 -0.487915 3.41376
                CHANNELS 3 Zrotation Xrotation Yrotation
                JOINT lThumb2
                {
                  OFFSET 3.37035 -0.52449 3.41376
                  CHANNELS 3 Zrotation Xrotation Yrotation
                  End Site
                  {
                    OFFSET 1.78271 -1.18214 1.43049
                  }
                }
              }
              JOINT lIndex1
              {
                OFFSET 7.75947 0.938293 5.60832
                CHANNELS 3 Zrotation Xrotation Yrotation
                JOINT lIndex2
                {
                  OFFSET 2.54057 -0.884171 1.56538
                  CHANNELS 3 Zrotation Xrotation Yrotation
                  End Site
                  {
                    OFFSET 1.62519 -0.234802 1.16502
                  }
                }
              }
              JOINT lMid1
              {
                OFFSET 8.24714 1.18213 3.41376
                CHANNELS 3 Zrotation Xrotation Yrotation
                JOINT lMid2
                {
                  OFFSET 3.10165 -0.590103 1.0647
                  CHANNELS 3 Zrotation Xrotation Yrotation
                  End Site
                  {
                    OFFSET 2.48547 -0.328903 0.83742
                  }
                }
              }
              JOINT lRing1
              {
                OFFSET 8.82822 0.546677 1.51678
                CHANNELS 3 Zrotation Xrotation Yrotation
                JOINT lRing2
                {
                  OFFSET 2.60934 -0.819778 -0.0198488
                  CHANNELS 3 Zrotation Xrotation Yrotation
                  End Site
                  {
                    OFFSET 2.33842 -0.294052 0.168128
                  }
                }
              }
              JOINT lPinky1
              {
                OFFSET 8.27202 -0.0477905 -0.4584
                CHANNELS 3 Zrotation Xrotation Yrotation
                JOINT lPinky2
                {
                  OFFSET 1.82734 -0.647385 -0.700984
                  CHANNELS 3 Zrotation Xrotation Yrotation
                  End Site
                  {
                    OFFSET 1.69225 -0.51767 -0.607171
                  }
                }
              }
            }
          }
        }
      }
    }
  }
  JOINT rButtock
  {
    OFFSET -8.77824 4.35084 1.2192
    CHANNELS 3 Zrotation Xrotation Yrotation
    JOINT rThigh
    {
      OFFSET 0 -1.70687 -2.19456
      CHANNELS 3 Zrotation Xrotation Yrotation
      JOINT rShin
      {
        OFFSET 0 -36.8199 0.73152
        CHANNELS 3 Zrotation Xrotation Yrotation
        JOINT rFoot
        {
          OFFSET 0.73152 -45.1104 -5.12064
          CHANNELS 3 Zrotation Xrotation Yrotation
          End Site
          {
            OFFSET -1.1221 -3.69964 12.103
          }
        }
      }
    }
  }
  JOINT lButtock
  {
    OFFSET 8.77824 4.35084 1.2192
    CHANNELS 3 Zrotation Xrotation Yrotation
    JOINT lThigh
    {
      OFFSET 0 -1.70687 -2.19456
      CHANNELS 3 Zrotation Xrotation Yrotation
      JOINT lShin
      {
        OFFSET 0 -36.8199 0.73152
        CHANNELS 3 Zrotation Xrotation Yrotation
        JOINT lFoot
        {
          OFFSET -0.73152 -45.1104 -5.12064
          CHANNELS 3 Zrotation Xrotation Yrotation
          End Site
          {
            OFFSET 1.1221 -3.69964 12.103
          }
        }
      }
    }
  }
}
MOTION
Frames:	4
Frame Time:	0.00833333
-20.7702 101.533 -38.405 1.3568 37.5309 7.9047 -2.45361 14.1644 1.95147 2.38671 -6.77326 0.54278 3.90493 -0.904216 6.04894 -10.5411 -17.8557 9.41349 -0.0 0.0 0.0 -0.0 0.0 0.0 -3.05546e-13 1.54694e-13 7.35706e-13 81.9894 28.5434 -17.5625 -28.3915 -34.1915 74.1142 -0.0493485 -6.1294 -0.865229 -1.59997e-09 4.45446e-10 -2.20022e-09 -2.75747e-09 7.58189e-10 -3.80229e-09 -1.59997e-09 4.45447e-10 -2.20022e-09 7.73091 5.47488 0.417314 -1.59997e-09 4.45447e-10 -2.20022e-09 2.90554 0.965183 0.102902 -1.59996e-09 4.45441e-10 -2.20022e-09 10.2786 0.731801 0.0259123 -1.59998e-09 4.45439e-10 -2.20022e-09 2.22167 -0.733487 -0.20892 -3.05512e-13 1.54691e-13 7.3552e-13 -88.7066 21.8022 36.7496 26.8749 -44.3408 -92.1293 0.482475 -19.3581 2.83018 -3.04524e-09 -2.51587e-09 1.33001e-09 -5.28624e-09 -4.34028e-09 2.25366e-09 -3.04524e-09 -2.51587e-09 1.33001e-09 -7.73091 5.47488 -0.417314 -3.04524e-09 -2.51586e-09 1.33001e-09 -2.90554 0.965183 -0.102902 -3.04524e-09 -2.51587e-09 1.33001e-09 -10.2786 0.731801 -0.0259123 -3.04523e-09 -2.51587e-09 1.33e-09 -2.22167 -0.733487 0.20892 -2.03217e-16 0.0 -3.88251e-19 -2.84253 -15.1112 -8.55054 -0.775283 53.9639 1.09996 -0.823039 16.9885 1.69401 2.03217e-16 0.0 3.88251e-19 -1.0985 -16.0705 -4.79811 0.589444 51.0697 -1.21 5.6609 19.401 -20.0224
-20.6356 102.546 -35.795 0.5634 39.9565 7.0336 -2.02605 15.2869 1.80043 2.39856 -6.96159 0.514618 4.01101 -0.795582 6.09229 -10.7408 -17.7047 9.45716 -0.0 0.0 0.0 -0.0 0.0 0.0 -3.76859e-13 9.54166e-14 1.11965e-12 81.4439 26.5749 -18.6313 -28.3068 -32.9642 72.0122 -0.0606859 -7.01204 -0.990477 -2.30608e-09 2.38531e-09 -3.5001e-09 -3.97578e-09 4.11146e-09 -6.05014e-09 -2.30608e-09 2.38531e-09 -3.5001e-09 7.73091 5.47488 0.417314 -2.30608e-09 2.3853e-09 -3.5001e-09 2.90554 0.965183 0.102902 -2.30607e-09 2.3853e-09 -3.5001e-09 10.2786 0.731801 0.0259123 -2.30609e-09 2.3853e-09 -3.5001e-09 2.22167 -0.733487 -0.20892 -3.76858e-13 9.5417e-14 1.11951e-12 -87.2156 20.1444 36.41 27.1392 -43.6317 -90.7172 0.533208 -20.2926 2.97882 -4.81831e-09 -3.74931e-09 1.18918e-09 -8.3511e-09 -6.4502e-09 1.9835e-09 -4.81832e-09 -3.74931e-09 1.18918e-09 -7.73091 5.47488 -0.417314 -4.81832e-09 -3.74931e-09 1.18918e-09 -2.90554 0.965183 -0.102902 -4.81832e-09 -3.74931e-09 1.18918e-09 -10.2786 0.731801 -0.0259123 -4.81831e-09 -3.74931e-09 1.18918e-09 -2.22167 -0.733487 0.20892 -2.03217e-16 0.0 -3.88251e-19 -3.28645 -16.2049 -9.28149 -0.841944 55.3962 1.1391 -0.526315 16.4998 0.175387 2.03217e-16 0.0 3.88251e-19 -0.903832 -16.8044 -3.41123 0.637724 52.3476 -1.25305 5.49133 18.5974 -20.3548
-20.5138 103.292 -33.0643 -0.3297 42.1182 6.1577 -1.67713 15.9274 1.61625 2.4358 -7.07356 0.482874 4.14246 -0.535169 6.13197 -11.1665 -17.8577 9.43962 -0.0 0.0 0.0 -0.0 0.0 0.0 -3.99085e-13 -1.35599e-14 1.34834e-12 80.7232 25.0139 -19.4399 -28.181 -31.5943 69.468 -0.0816487 -8.39078 -1.18685 -2.68412e-09 1.12971e-09 -3.10033e-09 -4.63575e-09 1.9425e-09 -5.35902e-09 -2.68413e-09 1.12971e-09 -3.10033e-09 7.73091 5.47488 0.417314 -2.68413e-09 1.12971e-09 -3.10033e-09 2.90554 0.965183 0.102902 -2.68412e-09 1.1297e-09 -3.10033e-09 10.2786 0.731801 0.0259123 -2.68413e-09 1.1297e-09 -3.10033e-09 2.22167 -0.733487 -0.20892 -3.99098e-13 -1.35615e-14 1.34819e-12 -85.9692 19.0562 36.3358 27.409 -42.8896 -89.1869 0.591617 -21.3391 3.14677 -5.66673e-09 -3.7624e-09 9.86809e-10 -9.81578e-09 -6.46622e-09 1.61738e-09 -5.66674e-09 -3.7624e-09 9.86814e-10 -7.73091 5.47488 -0.417314 -5.66674e-09 -3.7624e-09 9.8681e-10 -2.90554 0.965183 -0.102902 -5.66674e-09 -3.7624e-09 9.86812e-10 -10.2786 0.731801 -0.0259123 -5.66673e-09 -3.7624e-09 9.86809e-10 -2.22167 -0.733487 0.20892 -2.03217e-16 0.0 -3.88251e-19 -3.91135 -17.1955 -9.67235 -0.856021 55.618 1.11761 -0.239507 16.6701 -1.34601 2.03217e-16 0.0 3.88251e-19 -0.882162 -17.4462 -1.8903 0.648736 52.5643 -1.2485 5.22049 17.8539 -20.2172
-20.1935 103.702 -30.7854 0.1556 44.2529 6.6466 -1.33658 16.2955 1.40875 2.48447 -7.15425 0.449759 4.32132 -0.163198 6.17422 -11.7635 -18.2712 9.37456 -0.0 0.0 0.0 -0.0 0.0 0.0 -3.90886e-13 -1.57484e-13 1.49612e-12 79.8922 23.7664 -20.0259 -27.9271 -29.9417 66.6331 -0.118034 -10.0961 -1.43232 -2.89553e-09 -2.06585e-09 -1.67009e-09 -5.01312e-09 -3.57834e-09 -2.88626e-09 -2.89553e-09 -2.06585e-09 -1.67009e-09 7.73091 5.47488 0.417314 -2.89553e-09 -2.06585e-09 -1.67009e-09 2.90554 0.965183 0.102902 -2.89552e-09 -2.06585e-09 -1.67009e-09 10.2786 0.731801 0.0259123 -2.89553e-09 -2.06586e-09 -1.67009e-09 2.22167 -0.733487 -0.20892 -3.90907e-13 -1.5749e-13 1.49594e-12 -84.8811 18.3747 36.3488 27.6676 -42.0422 -87.5232 0.660493 -22.4881 3.33418 -6.00532e-09 -2.95269e-09 7.15709e-10 -1.03976e-08 -5.06846e-09 1.13772e-09 -6.00533e-09 -2.9527e-09 7.15719e-10 -7.73091 5.47488 -0.417314 -6.00533e-09 -2.9527e-09 7.15712e-10 -2.90554 0.965183 -0.102902 -6.00532e-09 -2.9527e-09 7.15714e-10 -10.2786 0.731801 -0.0259123 -6.00531e-09 -2.9527e-09 7.1571e-10 -2.22167 -0.733487 0.20892 -2.03217e-16 0.0 -3.88251e-19 -4.68743 -18.1699 -9.91458 -0.831622 54.9526 1.04913 0.10401 17.1692 -3.02112 2.03217e-16 0.0 3.88251e-19 -0.946252 -18.0556 -0.210746 0.630503 51.9924 -1.20611 4.87265 17.038 -19.8085
